HIERARCHY
ROOT Hips
{
	OFFSET 0.000000 0.000000 0.000000
	CHANNELS 6 Xposition Yposition Zposition Zrotation Yrotation Xrotation 
	JOINT LeftUpLeg_virtual
	{
		OFFSET 0.000000 0.000000 0.000000
		CHANNELS 3 Zrotation Yrotation Xrotation
		JOINT LeftUpLeg
		{
			OFFSET 10.205400 -3.823500 0.155100
			CHANNELS 3 Zrotation Yrotation Xrotation
			JOINT LeftLeg
			{
				OFFSET 0.708757 -12.982077 0.567790
				CHANNELS 3 Zrotation Yrotation Xrotation
				JOINT LeftFoot
				{
					OFFSET -0.708756 -10.717838 -2.184338
					CHANNELS 3 Zrotation Yrotation Xrotation
					JOINT LeftToeBase
					{
						OFFSET 0.108149 -7.191104 7.560241
						CHANNELS 3 Zrotation Yrotation Xrotation
						End Site
						{
							OFFSET 0.000000 0.000000 0.000000
						}
					}
				}
			}
		}
	}
	JOINT RightUpLeg_virtual
	{
		OFFSET 0.000000 0.000000 0.000000
		CHANNELS 3 Zrotation Yrotation Xrotation
		JOINT RightUpLeg
		{
			OFFSET -10.205400 -3.823500 0.005500
			CHANNELS 3 Zrotation Yrotation Xrotation
			JOINT RightLeg
			{
				OFFSET -0.708756 -12.982134 0.610632
				CHANNELS 3 Zrotation Yrotation Xrotation
				JOINT RightFoot
				{
					OFFSET 0.708754 -10.717769 -1.945823
					CHANNELS 3 Zrotation Yrotation Xrotation
					JOINT RightToeBase
					{
						OFFSET -0.108140 -7.191069 7.372968
						CHANNELS 3 Zrotation Yrotation Xrotation
						End Site
						{
							OFFSET 0.000000 0.000000 0.000000
						}
					}
				}
			}
		}
	}
	JOINT Spine_virtual
	{
		OFFSET 0.000000 0.000000 0.000000
		CHANNELS 3 Zrotation Yrotation Xrotation
		JOINT Spine
		{
			OFFSET 0.000000 6.876099 0.125700
			CHANNELS 3 Zrotation Yrotation Xrotation
			JOINT Spine1
			{
				OFFSET 0.000000 8.022060 0.146608
				CHANNELS 3 Zrotation Yrotation Xrotation
				JOINT Spine2
				{
					OFFSET 0.000000 9.168068 0.167552
					CHANNELS 3 Zrotation Yrotation Xrotation
					JOINT Neck_virtual
					{
						OFFSET 0.000000 0.000000 0.000000
						CHANNELS 3 Zrotation Yrotation Xrotation
						JOINT Neck
						{
							OFFSET 0.000000 10.314075 0.188496
							CHANNELS 3 Zrotation Yrotation Xrotation
							JOINT Head
							{
								OFFSET 0.000000 7.643700 -2.377400
								CHANNELS 3 Zrotation Yrotation Xrotation
								End Site
								{
									OFFSET 0.000000 0.000000 0.000000
								}
							}
						}
					}
					JOINT LeftShoulder_virtual
					{
						OFFSET 0.000000 0.000000 0.000000
						CHANNELS 3 Zrotation Yrotation Xrotation
						JOINT LeftShoulder
						{
							OFFSET 4.392200 8.824978 0.174984
							CHANNELS 3 Zrotation Yrotation Xrotation
							JOINT LeftArm
							{
								OFFSET 8.771219 -2.981674 -0.026999
								CHANNELS 3 Zrotation Yrotation Xrotation
								JOINT LeftForeArm
								{
									OFFSET 8.512804 0.000000 -0.000000
									CHANNELS 3 Zrotation Yrotation Xrotation
									JOINT LeftHand
									{
										OFFSET 18.484802 0.000000 -0.000000
										CHANNELS 3 Zrotation Yrotation Xrotation
										End Site
										{
											OFFSET 0.000000 0.000000 0.000000
										}
									}
								}
							}
						}
					}
					JOINT RightShoulder_virtual
					{
						OFFSET 0.000000 0.000000 0.000000
						CHANNELS 3 Zrotation Yrotation Xrotation
						JOINT RightShoulder
						{
							OFFSET -4.392200 8.824993 0.141379
							CHANNELS 3 Zrotation Yrotation Xrotation
							JOINT RightArm
							{
								OFFSET -8.771282 -2.981682 -0.094208
								CHANNELS 3 Zrotation Yrotation Xrotation
								JOINT RightForeArm
								{
									OFFSET -8.494598 0.000000 0.000000
									CHANNELS 3 Zrotation Yrotation Xrotation
									JOINT RightHand
									{
										OFFSET -18.483803 0.000000 0.000001
										CHANNELS 3 Zrotation Yrotation Xrotation
										End Site
										{
											OFFSET 0.000000 0.000000 0.000000
										}
									}
								}
							}
						}
					}
				}
			}
		}
	}
}
MOTION
Frames: 4
Frame Time: 0.033333
3.668207 34.201733 11.327134 -174.898919 -87.553436 174.847829 -3.403259 -4.546372 15.142342 -1.725055 10.440058 -49.282636 8.292464 4.775576 51.179185 -9.540293 0.776592 12.299584 0.000000 0.000000 0.000000 1.004394 -4.367250 11.968340 9.585430 9.880480 -31.349100 -4.281742 8.857366 17.244008 3.292726 -1.311686 1.391471 0.000000 0.000000 0.000000 -1.420749 -3.124348 9.813075 2.137615 5.865664 -3.169029 3.388841 -2.375521 5.666094 -0.032386 0.026145 -0.002376 3.293478 -0.797713 8.188320 15.282215 0.979246 -2.586913 0.000000 0.000000 0.000000 4.336642 0.054054 5.454990 -10.003745 -16.544851 -0.466624 -72.413543 13.952403 -2.359901 -0.938880 -21.392089 7.508966 0.000000 0.000000 0.000000 0.339089 1.596088 4.062278 22.503131 7.378379 -1.457159 62.182753 11.840938 34.226846 -159.553724 69.250906 -158.338456 0.000000 0.000000 0.000000 
4.108620 34.280880 11.620428 -171.384172 -88.313909 171.391112 -3.460225 -4.349834 15.923090 -2.067146 9.056599 -51.403328 8.366709 5.866788 45.026185 -9.506383 1.120250 11.316522 0.000000 0.000000 0.000000 1.029873 -4.398083 12.885065 9.034857 9.240578 -32.612224 -4.459881 9.003911 15.296316 3.169799 -1.123339 3.542157 0.000000 0.000000 0.000000 -1.459786 -3.006716 11.713405 2.071811 5.834562 -2.100178 3.392534 -2.463754 5.309889 -0.011826 0.011774 -0.035264 3.277617 -1.008465 7.807453 15.174799 0.964975 -4.258022 0.000000 0.000000 0.000000 4.400306 -0.027015 5.162561 -9.719311 -17.400807 -0.354231 -71.982851 12.178442 -2.154150 -0.809491 -20.931624 7.492697 0.000000 0.000000 0.000000 0.332598 1.609275 3.736497 22.182786 8.134667 -1.311009 61.555229 11.901138 34.581255 -159.102317 69.839142 -157.737072 0.000000 0.000000 0.000000 
4.468377 34.363247 11.855959 -170.383372 -89.030047 170.317133 -3.781288 -4.201215 16.758977 -2.082241 7.780750 -52.942125 8.294318 6.754680 38.120396 -9.470600 1.419619 10.492553 0.000000 0.000000 0.000000 1.025214 -4.407811 14.068493 8.436590 8.607995 -34.111539 -4.590927 8.872950 14.040237 3.135040 -0.933155 5.257737 0.000000 0.000000 0.000000 -1.684816 -2.927547 13.527001 1.995790 5.810737 -1.126587 3.523254 -2.557618 5.002772 -0.026151 0.001082 -0.001723 3.407977 -0.900929 7.392911 15.470635 1.037641 -5.518962 0.000000 0.000000 0.000000 4.417501 -0.062234 4.683264 -9.588222 -17.976894 -0.318457 -71.484432 10.623091 -1.826627 -0.877690 -20.799015 7.480982 0.000000 0.000000 0.000000 0.435599 1.414368 3.380730 21.841207 9.071403 -1.341554 60.873118 12.058293 34.896888 -158.921044 70.377040 -157.403663 0.000000 0.000000 0.000000 
4.750842 34.430588 11.993647 -177.621911 -89.730203 177.551082 -4.304474 -4.271956 17.435883 -2.011750 7.126058 -54.175517 8.151731 7.861612 31.579694 -9.552622 1.549261 9.900857 0.000000 0.000000 0.000000 1.022748 -4.417525 15.002126 7.890257 8.007907 -35.474555 -4.630884 8.731884 13.458211 3.089119 -0.813868 6.092066 0.000000 0.000000 0.000000 -1.849764 -2.838773 15.033403 1.911901 5.785597 -0.346472 3.591258 -2.622420 4.666759 -0.008964 -0.017470 -0.020062 3.592346 -1.150286 7.056098 15.934406 0.923738 -6.474112 0.000000 0.000000 0.000000 4.524034 -0.129702 4.356248 -9.564847 -18.466128 -0.162960 -70.970016 9.146083 -0.913434 -0.866291 -20.999591 7.287575 0.000000 0.000000 0.000000 0.547785 1.344384 2.987187 21.659343 9.979802 -1.098221 60.209600 12.428859 35.302751 -158.869613 70.850133 -157.210150 0.000000 0.000000 0.000000 
